# xmcd
#
# Track frame offsets:
#  150
#  9447
#  23742
#  33411
#  46641
#  60482
#  74024
#  85535
#  98572
#  109346
#  123596
#
# Disc length: 1798 seconds
#
# Revision: 0
# Processed by: cddbd v1.5.2PL0 Copyright (c) Steve Scherf et al.
# Submitted via: AltoMP3_Maker 3.0
#
DISCID=8107040b
DTITLE=Li'l Mo and The Monicats - Whole Lotta Lovin'
DYEAR=1900
DGENRE=
TTITLE0=Whole Lotta Lovin'
TTITLE1=Little Heart Attacks
TTITLE2=When Girls Sing
TTITLE3=Pain And Misery
TTITLE4=Waiting And Wanting
TTITLE5=Lovely Miranda
TTITLE6=Three Cool Cats
TTITLE7=Real Gone Jive
TTITLE8=I Can't Help Myself
TTITLE9=Trouble In Mind
TTITLE10=Too Much Time With Your Tears
EXTD=
EXTT0=
EXTT1=
EXTT2=
EXTT3=
EXTT4=
EXTT5=
EXTT6=
EXTT7=
EXTT8=
EXTT9=
EXTT10=
PLAYORDER=
